<svg width="59" height="21" viewBox="0 0 59 21" fill="none" xmlns="http://www.w3.org/2000/svg">
<rect width="59" height="21" fill="#2D9CDB"/>
<path d="M22.246 6.043V5.081H10.767V6.043H15.733V15.975H16.76V9.137C18.242 9.93 19.984 10.996 20.868 11.724L21.544 10.853C20.517 10.073 18.476 8.903 16.929 8.162L16.76 8.357V6.043H22.246ZM32.75 12.673V13.466H26.354V12.673H32.75ZM26.354 14.922V14.09H32.75V14.922H26.354ZM25.418 16.027H26.354V15.598H32.75V16.001H33.712V12.01H25.418V16.027ZM29.929 7.122H32.698V7.889H29.929V7.122ZM29.929 5.666H32.698V6.394H29.929V5.666ZM29.929 10.684V9.917H34.362V9.254H29.929V8.539H33.647V7.122H35.233V6.394H33.647V5.016H29.929V4.106H28.98V5.016H25.145V5.666H28.98V6.394H23.78V7.122H28.98V7.889H25.002V8.539H28.98V9.254H24.638V9.917H28.98V10.684H23.754V11.399H35.246V10.684H29.929ZM42.526 5.926C42.552 6.03 42.578 6.147 42.617 6.251C41.369 6.316 39.887 6.277 38.327 6.095L38.392 7.044C40.017 7.187 41.603 7.213 42.864 7.135C42.968 7.447 43.085 7.785 43.215 8.149C43.293 8.37 43.384 8.591 43.475 8.825C42.006 8.955 40.03 8.968 38.08 8.76L38.132 9.735C40.134 9.878 42.266 9.852 43.852 9.709C44.138 10.346 44.476 10.983 44.866 11.581C44.45 11.529 43.605 11.438 42.916 11.36L42.825 12.153C43.722 12.257 44.944 12.374 45.672 12.569L46.205 11.776C46.023 11.594 45.867 11.425 45.724 11.217C45.386 10.723 45.087 10.164 44.814 9.605C45.724 9.475 46.543 9.306 47.167 9.137L47.011 8.162C46.4 8.357 45.49 8.591 44.411 8.721C44.307 8.461 44.203 8.188 44.112 7.941C44.021 7.668 43.917 7.369 43.826 7.044C44.723 6.927 45.646 6.732 46.387 6.524L46.244 5.588C45.412 5.861 44.502 6.056 43.579 6.173C43.436 5.653 43.319 5.12 43.267 4.626L42.162 4.769C42.292 5.133 42.422 5.536 42.526 5.926ZM39.965 11.555L38.951 11.347C38.665 11.919 38.431 12.465 38.444 13.206C38.457 14.87 39.887 15.624 42.435 15.624C43.54 15.624 44.567 15.546 45.477 15.403L45.516 14.363C44.58 14.558 43.631 14.636 42.422 14.636C40.381 14.636 39.419 14.103 39.419 13.024C39.419 12.452 39.653 12.01 39.965 11.555Z" fill="white"/>
</svg>
