<svg width="85" height="21" viewBox="0 0 85 21" fill="none" xmlns="http://www.w3.org/2000/svg">
<rect width="85" height="21" fill="#27AE60"/>
<path d="M20.907 14.259H12.132V7.174H11.196V15.988H12.132V15.182H20.907V15.949H21.843V7.174H20.907V14.259ZM18.736 9.826H16.877V8.136H18.736V9.826ZM18.736 12.309H16.877V10.606H18.736V12.309ZM14.186 10.606H16.032V12.309H14.186V10.606ZM14.186 8.136H16.032V9.826H14.186V8.136ZM10.793 4.977V5.874H15.967V7.317H13.367V13.128H19.581V7.317H16.929V5.874H22.207V4.977H10.793ZM26.055 4.197C25.431 6.199 24.404 8.175 23.286 9.475C23.442 9.709 23.702 10.216 23.793 10.45C24.222 9.943 24.625 9.358 25.015 8.708V15.988H25.938V6.979C26.328 6.16 26.666 5.302 26.952 4.444L26.055 4.197ZM28.278 7.382H30.657V8.851H28.278V7.382ZM31.697 5.692C31.489 6.03 31.242 6.394 30.982 6.667H28.369C28.668 6.342 28.928 6.017 29.175 5.692H31.697ZM34.024 8.851H31.541V7.382H34.024V8.851ZM34.648 9.943C34.193 10.385 33.491 10.97 32.867 11.386C32.62 10.814 32.412 10.19 32.243 9.54H34.934V6.667H32.035C32.373 6.251 32.711 5.77 32.984 5.315L32.386 4.912L32.217 4.964H29.669C29.812 4.743 29.942 4.522 30.059 4.314L29.136 4.145C28.603 5.146 27.641 6.42 26.302 7.369C26.536 7.473 26.848 7.72 27.017 7.915C27.147 7.811 27.277 7.707 27.394 7.603V9.54H29.864C28.928 10.125 27.706 10.632 26.601 10.957C26.77 11.126 27.043 11.451 27.173 11.633C27.953 11.347 28.824 10.957 29.617 10.515C29.838 10.697 30.02 10.879 30.189 11.074C29.305 11.763 27.849 12.452 26.718 12.79C26.9 12.959 27.108 13.258 27.212 13.453C28.304 13.05 29.656 12.335 30.579 11.62C30.748 11.88 30.878 12.14 30.969 12.4C29.929 13.414 28.005 14.48 26.471 14.948C26.666 15.13 26.887 15.429 27.017 15.663C28.395 15.143 30.059 14.181 31.19 13.232C31.32 14.038 31.138 14.714 30.774 14.974C30.54 15.169 30.306 15.195 29.981 15.195C29.734 15.195 29.344 15.182 28.928 15.143C29.084 15.377 29.149 15.741 29.162 15.962C29.526 15.988 29.89 16.001 30.163 16.001C30.683 15.988 31.034 15.91 31.411 15.598C32.464 14.805 32.438 11.932 30.28 10.125C30.579 9.943 30.852 9.748 31.099 9.54H31.411C32.022 12.127 33.153 14.337 34.895 15.429C35.025 15.195 35.324 14.844 35.532 14.662C34.57 14.129 33.79 13.206 33.192 12.075C33.855 11.672 34.7 11.074 35.324 10.515L34.648 9.943ZM45.971 8.045C45.594 7.785 45.061 7.486 44.476 7.187C44.658 6.641 44.788 6.082 44.879 5.51H47.076C46.972 7.915 46.855 8.825 46.634 9.059C46.556 9.176 46.439 9.202 46.218 9.189C46.01 9.189 45.464 9.189 44.879 9.137C45.022 9.384 45.113 9.735 45.126 10.008C45.737 10.047 46.335 10.047 46.647 10.021C46.998 9.995 47.219 9.904 47.414 9.644C47.739 9.267 47.869 8.136 47.986 5.081C47.999 4.964 47.999 4.678 47.999 4.678H41.798V5.51H43.982C43.917 5.939 43.813 6.381 43.683 6.797C43.163 6.576 42.643 6.355 42.162 6.199L41.681 6.875C42.214 7.057 42.799 7.304 43.371 7.577C42.942 8.409 42.292 9.15 41.213 9.644C41.408 9.8 41.668 10.125 41.785 10.32C42.942 9.748 43.67 8.916 44.151 7.967C44.671 8.253 45.152 8.552 45.49 8.799L45.971 8.045ZM43.371 10.372C44.203 10.84 45.178 11.594 45.646 12.127L46.244 11.49C45.776 10.944 44.762 10.242 43.93 9.8L43.371 10.372ZM40.745 4.574H37.183V5.354H40.745V4.574ZM41.148 6.277H36.546V7.07H41.148V6.277ZM40.784 8.032H37.118V8.799H40.784V8.032ZM37.118 10.528H40.784V9.748H37.118V10.528ZM39.965 12.283V14.467H37.924V12.283H39.965ZM40.797 11.49H37.105V15.845H37.924V15.247H40.797V11.49ZM41.59 15.286C42.279 14.571 42.565 13.323 42.695 12.179L41.915 11.984C41.785 13.05 41.499 14.181 40.888 14.831L41.59 15.286ZM44.463 15.039C44.086 15.039 44.034 14.987 44.034 14.662V11.542H43.137V14.662C43.137 15.624 43.371 15.884 44.333 15.884H45.776C46.595 15.884 46.829 15.494 46.92 13.934C46.66 13.856 46.296 13.726 46.114 13.557C46.075 14.857 46.01 15.039 45.672 15.039H44.463ZM46.374 12.062C47.037 13.024 47.609 14.324 47.778 15.195L48.623 14.844C48.441 13.96 47.856 12.699 47.154 11.75L46.374 12.062ZM61.428 7.005C61.207 6.355 60.648 5.419 60.076 4.73L59.348 5.029C59.907 5.718 60.427 6.693 60.635 7.356L61.428 7.005ZM57.918 5.536H56.28V4.132H55.383V5.536H53.693V6.303H57.918V5.536ZM56.878 8.474C57.06 7.98 57.255 7.2 57.463 6.524L56.631 6.355C56.553 6.94 56.358 7.785 56.189 8.318L56.878 8.474ZM55.318 8.292C55.292 7.785 55.149 7.005 54.915 6.42L54.213 6.576C54.434 7.187 54.564 7.954 54.577 8.461L55.318 8.292ZM53.186 4.574H50.131V5.354H53.186V4.574ZM53.524 6.277H49.546V7.07H53.524V6.277ZM53.212 8.032H50.079V8.799H53.212V8.032ZM50.079 10.528H53.212V9.748H50.079V10.528ZM52.432 12.283V14.454H50.807V12.283H52.432ZM53.225 11.49H50.04V15.845H50.807V15.234H53.225V11.49ZM54.798 13.713V12.608H56.774V13.713H54.798ZM56.774 10.84V11.906H54.798V10.84H56.774ZM60.219 9.891C59.998 10.684 59.699 11.412 59.348 12.075C59.244 11.295 59.179 10.359 59.14 9.319H61.311V8.513H59.114C59.075 7.213 59.062 5.744 59.075 4.145H58.23C58.243 5.731 58.256 7.187 58.295 8.513H53.342V9.319H58.334C58.399 10.814 58.503 12.088 58.685 13.128C58.347 13.583 57.983 13.986 57.593 14.35V10.125H54.031V15.13H54.798V14.428H57.515C57.112 14.805 56.683 15.117 56.228 15.39C56.41 15.533 56.657 15.78 56.774 15.936C57.541 15.455 58.256 14.844 58.893 14.103C59.231 15.312 59.738 16.001 60.505 16.04C60.947 16.053 61.376 15.546 61.61 13.765C61.467 13.674 61.129 13.44 60.986 13.258C60.908 14.324 60.752 15 60.531 14.987C60.089 14.948 59.764 14.337 59.53 13.271C60.128 12.4 60.622 11.399 60.96 10.281L60.219 9.891ZM68.968 10.827V7.382H72.699V10.827H68.968ZM64.249 10.827V7.382H67.967V10.827H64.249ZM68.968 6.433V4.119H67.967V6.433H63.3V12.582H64.249V11.776H67.967V15.988H68.968V11.776H72.699V12.517H73.687V6.433H68.968Z" fill="white"/>
</svg>
