<svg width="59" height="21" viewBox="0 0 59 21" fill="none" xmlns="http://www.w3.org/2000/svg">
<rect width="59" height="21" fill="#979797"/>
<path d="M14.147 4.496C13.38 6.407 12.106 8.266 10.689 9.436C10.962 9.579 11.404 9.943 11.612 10.125C12.99 8.851 14.329 6.875 15.2 4.795L14.147 4.496ZM17.93 11.62C18.541 12.348 19.204 13.232 19.789 14.077C17.826 14.168 15.824 14.259 14.069 14.324C14.927 12.79 15.863 10.762 16.565 9.085L15.447 8.812C14.888 10.489 13.861 12.79 12.99 14.376C12.34 14.389 11.742 14.415 11.209 14.428L11.339 15.442C13.653 15.325 17.111 15.169 20.387 14.974C20.634 15.364 20.855 15.741 21.024 16.053L21.973 15.52C21.336 14.363 20.01 12.556 18.827 11.204L17.93 11.62ZM17.8 4.886C18.788 6.706 20.413 8.877 21.609 10.125C21.804 9.865 22.155 9.488 22.415 9.306C21.232 8.214 19.607 6.186 18.736 4.496L17.8 4.886ZM27.992 5.419V6.472H25.145V5.419H27.992ZM25.145 8.279V7.161H27.992V8.279H25.145ZM28.902 9.02V4.678H24.196V16.001H25.145V9.02H28.902ZM28.538 12.036V10.632H30.358V12.036H28.538ZM32.984 12.855V12.036H31.216V10.632H32.698V9.839H26.289V10.632H27.693V12.036H26.042V12.855H27.667C27.589 13.609 27.225 14.688 26.133 15.351C26.341 15.481 26.627 15.754 26.77 15.923C28.018 15.078 28.434 13.726 28.512 12.855H30.358V15.754H31.216V12.855H32.984ZM30.969 8.292V7.161H33.92V8.292H30.969ZM33.92 5.419V6.472H30.969V5.419H33.92ZM34.869 4.678H30.046V9.033H33.92V14.727C33.92 14.935 33.855 15.013 33.647 15.013C33.452 15.026 32.75 15.026 32.035 15C32.178 15.26 32.321 15.715 32.347 15.962C33.322 15.975 33.972 15.949 34.362 15.793C34.739 15.624 34.869 15.312 34.869 14.74V4.678ZM38.47 12.374V11.074H41.343V12.374H38.47ZM41.343 9.046V10.32H38.47V9.046H41.343ZM42.279 8.214H37.547V15.936H38.47V13.141H41.343V14.87C41.343 15.039 41.291 15.091 41.096 15.104C40.927 15.117 40.342 15.117 39.692 15.091C39.822 15.325 39.952 15.689 40.004 15.936C40.888 15.936 41.447 15.936 41.811 15.78C42.162 15.624 42.279 15.377 42.279 14.883V8.214ZM46.465 14.779C46.465 14.974 46.4 15.026 46.179 15.039C45.984 15.052 45.282 15.052 44.489 15.026C44.632 15.286 44.788 15.689 44.84 15.949C45.828 15.962 46.478 15.936 46.894 15.78C47.284 15.624 47.414 15.364 47.414 14.779V7.954H46.465V14.779ZM44.749 8.344H43.852V13.622H44.749V8.344ZM45.243 6.173C45.62 5.64 46.049 5.003 46.4 4.405L45.386 4.067C45.1 4.691 44.606 5.549 44.164 6.173H40.29L40.927 5.926C40.68 5.419 40.134 4.652 39.627 4.106L38.743 4.444C39.185 4.964 39.692 5.666 39.926 6.173H36.741V7.057H48.272V6.173H45.243Z" fill="white"/>
</svg>
