<svg width="72" height="21" viewBox="0 0 72 21" fill="none" xmlns="http://www.w3.org/2000/svg">
<rect width="72" height="21" fill="#979797"/>
<path d="M14.147 4.496C13.38 6.407 12.106 8.266 10.689 9.436C10.962 9.579 11.404 9.943 11.612 10.125C12.99 8.851 14.329 6.875 15.2 4.795L14.147 4.496ZM17.93 11.62C18.541 12.348 19.204 13.232 19.789 14.077C17.826 14.168 15.824 14.259 14.069 14.324C14.927 12.79 15.863 10.762 16.565 9.085L15.447 8.812C14.888 10.489 13.861 12.79 12.99 14.376C12.34 14.389 11.742 14.415 11.209 14.428L11.339 15.442C13.653 15.325 17.111 15.169 20.387 14.974C20.634 15.364 20.855 15.741 21.024 16.053L21.973 15.52C21.336 14.363 20.01 12.556 18.827 11.204L17.93 11.62ZM17.8 4.886C18.788 6.706 20.413 8.877 21.609 10.125C21.804 9.865 22.155 9.488 22.415 9.306C21.232 8.214 19.607 6.186 18.736 4.496L17.8 4.886ZM27.992 5.419V6.472H25.145V5.419H27.992ZM25.145 8.279V7.161H27.992V8.279H25.145ZM28.902 9.02V4.678H24.196V16.001H25.145V9.02H28.902ZM28.538 12.036V10.632H30.358V12.036H28.538ZM32.984 12.855V12.036H31.216V10.632H32.698V9.839H26.289V10.632H27.693V12.036H26.042V12.855H27.667C27.589 13.609 27.225 14.688 26.133 15.351C26.341 15.481 26.627 15.754 26.77 15.923C28.018 15.078 28.434 13.726 28.512 12.855H30.358V15.754H31.216V12.855H32.984ZM30.969 8.292V7.161H33.92V8.292H30.969ZM33.92 5.419V6.472H30.969V5.419H33.92ZM34.869 4.678H30.046V9.033H33.92V14.727C33.92 14.935 33.855 15.013 33.647 15.013C33.452 15.026 32.75 15.026 32.035 15C32.178 15.26 32.321 15.715 32.347 15.962C33.322 15.975 33.972 15.949 34.362 15.793C34.739 15.624 34.869 15.312 34.869 14.74V4.678ZM37.222 11.49C37.079 12.634 36.806 13.791 36.377 14.584C36.585 14.649 36.975 14.831 37.131 14.948C37.56 14.116 37.872 12.868 38.054 11.646L37.222 11.49ZM39.9 11.633C40.238 12.387 40.563 13.362 40.693 14.012L41.434 13.765C41.304 13.128 40.953 12.14 40.602 11.399L39.9 11.633ZM41.915 13.999C43.657 14.493 45.776 15.364 46.92 16.053L47.492 15.286C46.322 14.649 44.203 13.791 42.487 13.31L41.915 13.999ZM43.319 11.542C44.229 11.932 45.36 12.582 45.945 13.05L46.543 12.387C45.945 11.932 44.801 11.321 43.904 10.944L43.319 11.542ZM43.397 6.316H46.335C45.945 7.07 45.425 7.759 44.814 8.383C44.229 7.759 43.722 7.096 43.332 6.394L43.397 6.316ZM46.998 5.432L46.829 5.484H43.917C44.151 5.081 44.359 4.678 44.528 4.288L43.579 4.119C43.098 5.302 42.162 6.784 40.771 7.863C40.979 7.993 41.291 8.279 41.434 8.487C41.954 8.058 42.396 7.59 42.799 7.109C43.189 7.759 43.657 8.383 44.177 8.955C43.332 9.67 42.357 10.255 41.369 10.671C41.161 9.995 40.706 9.046 40.238 8.318L39.562 8.591C39.77 8.955 39.978 9.358 40.16 9.761L38.249 9.839C39.107 8.721 40.095 7.2 40.836 5.965L40.017 5.601C39.679 6.29 39.211 7.122 38.704 7.928C38.496 7.668 38.236 7.369 37.95 7.083C38.431 6.355 38.977 5.328 39.419 4.47L38.574 4.132C38.301 4.847 37.846 5.822 37.404 6.55C37.274 6.433 37.157 6.316 37.027 6.212L36.533 6.849C37.131 7.382 37.807 8.11 38.21 8.682C37.924 9.111 37.625 9.527 37.352 9.878L36.494 9.917L36.572 10.775C37.17 10.736 37.872 10.697 38.613 10.658V16.014H39.471V10.606L40.485 10.541C40.576 10.788 40.654 11.035 40.706 11.23L41.317 10.957C41.473 11.139 41.642 11.386 41.733 11.529C42.799 11.074 43.865 10.424 44.814 9.592C45.763 10.489 46.842 11.23 47.973 11.698C48.116 11.451 48.402 11.1 48.597 10.905C47.479 10.502 46.387 9.826 45.451 8.994C46.335 8.084 47.089 7.005 47.583 5.77L46.998 5.432ZM59.764 5.068L59.556 5.133H50.313V6.082H58.685C57.866 6.927 56.735 7.876 55.656 8.526H55.019V14.727C55.019 14.961 54.928 15.039 54.642 15.052C54.356 15.065 53.342 15.065 52.276 15.026C52.432 15.299 52.627 15.715 52.666 15.988C53.992 15.988 54.85 15.988 55.344 15.845C55.838 15.689 56.02 15.39 56.02 14.74V9.371C57.606 8.461 59.387 6.966 60.518 5.614L59.764 5.068Z" fill="white"/>
</svg>
