<svg width="59" height="21" viewBox="0 0 59 21" fill="none" xmlns="http://www.w3.org/2000/svg">
<rect width="59" height="21" fill="#F2994A"/>
<path d="M21.583 8.877L21.388 8.955H18.71L18.931 8.617C18.567 8.422 18.06 8.175 17.527 7.941C18.697 7.2 19.984 6.225 20.907 5.302L20.205 4.769L19.984 4.821H11.963V5.718H19.048C18.346 6.355 17.397 7.031 16.578 7.499C15.785 7.148 14.94 6.797 14.225 6.511L13.731 7.226C14.888 7.72 16.37 8.396 17.475 8.955H10.741V9.878H16.097V14.766C16.097 14.961 16.019 15.013 15.785 15.026C15.525 15.039 14.654 15.052 13.757 15.013C13.887 15.286 14.056 15.676 14.121 15.949C15.252 15.949 16.006 15.936 16.461 15.793C16.916 15.65 17.072 15.377 17.072 14.779V9.878H20.764C20.296 10.632 19.724 11.386 19.243 11.906L20.023 12.4C20.816 11.607 21.661 10.372 22.35 9.241L21.583 8.877ZM32.711 11.997V14.48H26.406V11.997H32.711ZM25.444 16.118H26.406V15.39H32.711V16.092H33.686V11.1H25.444V16.118ZM30.293 8.916V6.875H34.245V5.991H30.293V4.119H29.292V5.991H26.575C26.809 5.497 27.03 4.99 27.212 4.47L26.25 4.249C25.769 5.692 24.95 7.174 24.001 8.097C24.248 8.227 24.677 8.487 24.872 8.617C25.301 8.149 25.717 7.538 26.107 6.875H29.292V8.916H23.845V9.826H35.207V8.916H30.293ZM42.968 10.827V7.382H46.699V10.827H42.968ZM38.249 10.827V7.382H41.967V10.827H38.249ZM42.968 6.433V4.119H41.967V6.433H37.3V12.582H38.249V11.776H41.967V15.988H42.968V11.776H46.699V12.517H47.687V6.433H42.968Z" fill="white"/>
</svg>
